<?xml version="1.0" encoding="UTF-8" ?>
<!DOCTYPE svg PUBLIC "-//W3C//DTD SVG 1.1//EN" "http://www.w3.org/Graphics/SVG/1.1/DTD/svg11.dtd">
<svg width="1000pt" height="1000pt" viewBox="0 0 1000 1000" version="1.1" xmlns="http://www.w3.org/2000/svg">
<path fill="#100d0e" stroke="#100d0e" stroke-width="0.09375" opacity="1.00" d=" M 0.00 0.00 L 1000.00 0.00 L 1000.00 1000.00 L 0.00 1000.00 L 0.00 0.00 M 124.54 217.56 C 124.06 223.36 124.36 229.19 124.34 235.00 C 124.34 253.67 124.32 272.33 124.34 291.00 C 124.37 296.98 124.08 302.97 124.47 308.94 C 130.96 309.65 137.49 309.17 143.99 309.19 C 158.33 309.14 172.67 309.02 187.00 308.99 C 192.94 309.00 198.88 308.67 204.81 309.11 C 205.25 314.73 205.01 320.37 205.01 326.00 C 205.01 443.33 205.01 560.67 205.01 678.00 C 204.99 683.87 205.28 689.74 204.78 695.60 C 198.86 696.02 192.93 695.74 187.00 695.76 C 172.33 695.77 157.67 695.77 143.00 695.76 C 136.83 695.80 130.64 695.42 124.49 696.13 C 124.10 702.08 124.39 708.04 124.37 714.00 C 124.35 731.00 124.35 748.00 124.37 765.00 C 124.39 770.90 124.11 776.82 124.49 782.72 C 130.31 783.30 136.16 782.96 142.00 782.98 C 223.33 782.98 304.67 782.98 386.00 782.97 C 391.64 782.99 397.29 783.26 402.92 782.78 C 403.07 780.53 403.21 778.28 403.22 776.03 C 403.08 755.69 403.19 735.34 403.15 715.00 C 403.10 708.66 403.46 702.32 402.91 695.99 C 396.95 695.49 390.97 695.79 385.00 695.77 C 370.67 695.77 356.33 695.77 342.00 695.76 C 336.01 695.73 330.01 696.03 324.02 695.59 C 323.37 689.41 323.72 683.19 323.69 677.00 C 323.69 560.33 323.69 443.66 323.69 327.00 C 323.72 320.81 323.36 314.60 324.03 308.43 C 333.00 307.85 342.01 308.34 351.00 308.12 C 361.93 307.86 372.88 308.39 383.80 307.76 C 385.35 303.39 386.00 298.79 386.85 294.25 C 391.89 270.65 396.54 246.96 401.66 223.37 C 402.06 221.42 402.32 219.45 402.56 217.47 C 394.04 217.11 385.52 217.52 377.00 217.38 C 298.67 217.38 220.33 217.38 142.00 217.39 C 136.18 217.41 130.35 217.12 124.54 217.56 M 483.94 217.49 C 483.16 223.29 483.42 229.16 483.47 235.00 C 483.47 411.33 483.47 587.67 483.47 764.00 C 483.49 770.02 483.17 776.06 483.76 782.08 C 489.83 782.53 495.92 782.26 502.00 782.28 C 538.00 782.28 574.00 782.29 610.00 782.29 C 634.97 782.36 659.97 781.99 684.88 780.18 C 697.03 779.71 709.20 778.67 721.17 776.44 C 753.97 769.83 784.38 753.36 809.20 731.10 C 828.25 714.14 843.97 693.65 856.59 671.54 C 870.69 646.64 880.54 619.48 886.93 591.62 C 897.88 542.54 898.56 491.64 893.10 441.80 C 889.13 408.76 881.39 375.91 867.38 345.62 C 860.87 331.43 852.94 317.91 843.82 305.24 C 826.88 282.40 806.22 261.95 781.69 247.34 C 754.93 231.27 724.11 222.58 693.06 220.47 C 654.76 218.00 616.37 217.25 578.00 217.38 C 552.33 217.38 526.67 217.38 501.00 217.39 C 495.31 217.40 489.62 217.16 483.94 217.49 Z" />
<path fill="#ffffff" stroke="#ffffff" stroke-width="0.09375" opacity="1.00" d=" M 124.54 217.56 C 130.35 217.12 136.18 217.41 142.00 217.39 C 220.33 217.38 298.67 217.38 377.00 217.38 C 385.52 217.52 394.04 217.11 402.56 217.47 C 402.32 219.45 402.06 221.42 401.66 223.37 C 396.54 246.96 391.89 270.65 386.85 294.25 C 386.00 298.79 385.35 303.39 383.80 307.76 C 372.88 308.39 361.93 307.86 351.00 308.12 C 342.01 308.34 333.00 307.85 324.03 308.43 C 323.36 314.60 323.72 320.81 323.69 327.00 C 323.69 443.66 323.69 560.33 323.69 677.00 C 323.72 683.19 323.37 689.41 324.02 695.59 C 330.01 696.03 336.01 695.73 342.00 695.76 C 356.33 695.77 370.67 695.77 385.00 695.77 C 390.97 695.79 396.95 695.49 402.91 695.99 C 403.46 702.32 403.10 708.66 403.15 715.00 C 403.19 735.34 403.08 755.69 403.22 776.03 C 403.21 778.28 403.07 780.53 402.92 782.78 C 397.29 783.26 391.64 782.99 386.00 782.97 C 304.67 782.98 223.33 782.98 142.00 782.98 C 136.16 782.96 130.31 783.30 124.49 782.72 C 124.11 776.82 124.39 770.90 124.37 765.00 C 124.35 748.00 124.35 731.00 124.37 714.00 C 124.39 708.04 124.10 702.08 124.49 696.13 C 130.64 695.42 136.83 695.80 143.00 695.76 C 157.67 695.77 172.33 695.77 187.00 695.76 C 192.93 695.74 198.86 696.02 204.78 695.60 C 205.28 689.74 204.99 683.87 205.01 678.00 C 205.01 560.67 205.01 443.33 205.01 326.00 C 205.01 320.37 205.25 314.73 204.81 309.11 C 198.88 308.67 192.94 309.00 187.00 308.99 C 172.67 309.02 158.33 309.14 143.99 309.19 C 137.49 309.17 130.96 309.65 124.47 308.94 C 124.08 302.97 124.37 296.98 124.34 291.00 C 124.32 272.33 124.34 253.67 124.34 235.00 C 124.36 229.19 124.06 223.36 124.54 217.56 Z" />
<path fill="#ffffff" stroke="#ffffff" stroke-width="0.09375" opacity="1.00" d=" M 483.94 217.49 C 489.62 217.16 495.31 217.40 501.00 217.39 C 526.67 217.38 552.33 217.38 578.00 217.38 C 616.37 217.25 654.76 218.00 693.06 220.47 C 724.11 222.58 754.93 231.27 781.69 247.34 C 806.22 261.95 826.88 282.40 843.82 305.24 C 852.94 317.91 860.87 331.43 867.38 345.62 C 881.39 375.91 889.13 408.76 893.10 441.80 C 898.56 491.64 897.88 542.54 886.93 591.62 C 880.54 619.48 870.69 646.64 856.59 671.54 C 843.97 693.65 828.25 714.14 809.20 731.10 C 784.38 753.36 753.97 769.83 721.17 776.44 C 709.20 778.67 697.03 779.71 684.88 780.18 C 659.97 781.99 634.97 782.36 610.00 782.29 C 574.00 782.29 538.00 782.28 502.00 782.28 C 495.92 782.26 489.83 782.53 483.76 782.08 C 483.17 776.06 483.49 770.02 483.47 764.00 C 483.47 587.67 483.47 411.33 483.47 235.00 C 483.42 229.16 483.16 223.29 483.94 217.49 M 599.15 307.02 C 598.64 312.67 598.90 318.34 598.90 324.00 C 598.90 436.67 598.90 549.33 598.90 662.00 C 599.10 671.16 598.43 680.35 599.23 689.49 C 604.81 689.85 610.41 689.61 616.00 689.61 C 631.52 689.61 647.04 689.64 662.56 689.61 C 682.04 689.32 701.96 684.51 717.88 672.89 C 728.57 665.26 737.16 654.96 743.71 643.63 C 752.48 628.38 757.88 611.44 761.56 594.31 C 768.83 558.91 769.43 522.56 768.47 486.56 C 768.00 467.73 766.65 448.93 764.30 430.24 C 761.00 407.07 755.81 383.85 745.28 362.80 C 738.96 350.43 730.93 338.75 720.53 329.45 C 712.43 322.29 702.96 316.62 692.72 313.10 C 677.14 307.55 660.41 306.52 644.00 306.78 C 629.05 306.98 614.09 306.41 599.15 307.02 Z" />
<path fill="#100d0e" stroke="#100d0e" stroke-width="0.09375" opacity="1.00" d=" M 599.15 307.02 C 614.09 306.41 629.05 306.98 644.00 306.78 C 660.41 306.52 677.14 307.55 692.72 313.10 C 702.96 316.62 712.43 322.29 720.53 329.45 C 730.93 338.75 738.96 350.43 745.28 362.80 C 755.81 383.85 761.00 407.07 764.30 430.24 C 766.65 448.93 768.00 467.73 768.47 486.56 C 769.43 522.56 768.83 558.91 761.56 594.31 C 757.88 611.44 752.48 628.38 743.71 643.63 C 737.16 654.96 728.57 665.26 717.88 672.89 C 701.96 684.51 682.04 689.32 662.56 689.61 C 647.04 689.64 631.52 689.61 616.00 689.61 C 610.41 689.61 604.81 689.85 599.23 689.49 C 598.43 680.35 599.10 671.16 598.90 662.00 C 598.90 549.33 598.90 436.67 598.90 324.00 C 598.90 318.34 598.64 312.67 599.15 307.02 Z" />
</svg>
